/* XPM */
static char *Blist[] = {
/* width height num_colors chars_per_pixel */
"    20    20        3            1",
/* colors */
". c #000000",
"# c None",
"a c #ffffff",
/* pixels */
"####################",
"####################",
"####################",
"####.###############",
"###.a.##.........###",
"####.###############",
"####################",
"####################",
"####################",
"####.###############",
"###.a.##.........###",
"####.###############",
"####################",
"####################",
"####################",
"####.###############",
"###.a.##.........###",
"####.###############",
"####################",
"####################"};
