/* XPM */
static char * Firefox_xpm[] = {
"20 20 51 1",
" 	c None",
".	c #111C42",
"+	c #621F36",
"@	c #3A76A2",
"#	c #4E6E7E",
"$	c #F8DD11",
"%	c #657B81",
"&	c #274161",
"*	c #F4B41B",
"=	c #6A163E",
"-	c #6A321E",
";	c #8E8B63",
">	c #1E69A5",
",	c #ACA270",
"'	c #BA300F",
")	c #9E7E38",
"!	c #8E553A",
"~	c #9A9242",
"{	c #C4450F",
"]	c #2D8FCD",
"^	c #DD7319",
"/	c #4E5E75",
"(	c #9A5222",
"_	c #AE8E5A",
":	c #F9D744",
"<	c #860E2A",
"[	c #D1A737",
"}	c #A26A46",
"|	c #E8961C",
"1	c #367AB2",
"2	c #419CD0",
"3	c #CB5317",
"4	c #1D518A",
"5	c #AE8222",
"6	c #2779B4",
"7	c #9B0F1B",
"8	c #EECA6E",
"9	c #FCF258",
"0	c #F0A61F",
"a	c #10366C",
"b	c #E4891C",
"c	c #37A0DC",
"d	c #6E5E48",
"e	c #E1984B",
"f	c #D6641A",
"g	c #DF7F1F",
"h	c #F7DE72",
"i	c #5E3837",
"j	c #B6160D",
"k	c #F8C51E",
"l	c #1D6099",
"                    ",
"      >66]>>#       ",
"    44>6]c]l4%[k    ",
"  gd.&}_1cc@>d[k*   ",
" 3^e[_g/1]6]2l&5k*h ",
" ge0|gfd%2ccc2>450: ",
" e|bbg^fg%ccc]2];0: ",
"0bbbg^ge/6]66>]6~:$ ",
"ebbb^^b[4]]>ll6>~h:*",
"|bb^3ji&46]6l44#[$:*",
"fg^^''!4>61144a;*$k8",
"'^^^'{f5}^b,4aa;kkh ",
" 3^^ff3{{(-...d[k:h ",
" '^^^^f3+....i^kk98 ",
" 7{^^^^^f(ii!^^|99  ",
"  j'fff^^^g^gf^$$[  ",
"   jj''{ffff^g*$[   ",
"    jjjjjj{{fg|g    ",
"     <7jjj''{}      ",
"        ===         "};
