/* XPM */
static char * IE_xpm[] = {
"20 20 72 1",
" 	c None",
".	c #000000",
"+	c #808000",
"@	c #000080",
"#	c #008080",
"$	c #C0C0C0",
"%	c #C0DCC0",
"&	c #161616",
"*	c #222222",
"=	c #292929",
"-	c #555555",
";	c #4D4D4D",
">	c #393939",
",	c #EFD6C6",
"'	c #E7E7D6",
")	c #ADA990",
"!	c #000033",
"~	c #333333",
"{	c #666633",
"]	c #999933",
"^	c #000066",
"/	c #003366",
"(	c #333366",
"_	c #336666",
":	c #666666",
"<	c #999966",
"[	c #CC9966",
"}	c #99CC66",
"|	c #CCCC66",
"1	c #FFCC66",
"2	c #000099",
"3	c #333399",
"4	c #006699",
"5	c #336699",
"6	c #669999",
"7	c #CC9999",
"8	c #99CC99",
"9	c #CCCC99",
"0	c #FFCC99",
"a	c #FFFF99",
"b	c #003399",
"c	c #3333CC",
"d	c #0066CC",
"e	c #3366CC",
"f	c #666699",
"g	c #0099CC",
"h	c #3399CC",
"i	c #6699CC",
"j	c #99CCCC",
"k	c #FFFFCC",
"l	c #0033CC",
"m	c #0066FF",
"n	c #3366FF",
"o	c #6666CC",
"p	c #0099FF",
"q	c #3399FF",
"r	c #00CCFF",
"s	c #33CCFF",
"t	c #66CCFF",
"u	c #33FFFF",
"v	c #99FFFF",
"w	c #CCFFFF",
"x	c #66FFFF",
"y	c #5F5F5F",
"z	c #777777",
"A	c #969696",
"B	c #B2B2B2",
"C	c #A0A0A4",
"D	c #808080",
"E	c #FFFF00",
"F	c #0000FF",
"G	c #FFFFFF",
"                    ",
"                    ",
"             FFFF   ",
"        FFFFFF   F  ",
"      @FFFFFFF@  F  ",
"     @FFEFFFFFF@    ",
"    @@+EFF@@FFFF@   ",
"    @+EFFF  .FFF@   ",
"   @+EFFF    .FFF@  ",
"   +EFFFFFFFFFFFF@  ",
"  +E+FFFF@@@@@@@@@  ",
"  + F@FFF           ",
"  ++F@FFF    .FFF@  ",
"  +FF@@FFFDD.FFFF@  ",
"  +F .@@FFFFFFFF@   ",
"  +F  ..@@FFFF@@    ",
"   FF  F......      ",
"    FFF             ",
"                    ",
"                    "};
