/* XPM */
static char *Image[] = {
/* width height num_colors chars_per_pixel */
"    20    20        9            1",
/* colors */
". c #00373c",
"# c #008000",
"a c #333366",
"b c #808000",
"c c #808080",
"d c None",
"e c #ff6633",
"f c #ff66cc",
"g c #ffffff",
/* pixels */
"dddddddddddddddddddd",
"dddddddddddddddddddd",
"dddddddddddddddddddd",
"ddaaaaaaaaaaaaaaaadd",
"ddaggggggggggggggadd",
"ddagggggg##ggggggadd",
"ddaggggg###.gggggadd",
"ddaggggg.#.#gggggadd",
"ddagggggg.#gggfggadd",
"ddaggggggggggfcggadd",
"ddaggebebgggfcfggadd",
"ddaggbebeggfcfcggadd",
"ddaggebebgggfcfggadd",
"ddaggbebeggggfcggadd",
"ddagggggggggggfggadd",
"ddaggggggggggggggadd",
"ddaaaaaaaaaaaaaaaadd",
"dddddddddddddddddddd",
"dddddddddddddddddddd",
"dddddddddddddddddddd"};
