/* XPM */
static char *Italic[] = {
/* width height num_colors chars_per_pixel */
"    20    20        2            1",
/* colors */
". c #333366",
"# c None",
/* pixels */
"####################",
"####################",
"####################",
"##############.#####",
"#############..#####",
"#############..#####",
"############...#####",
"###########.#..#####",
"##########.##..#####",
"##########.##..#####",
"#########.###..#####",
"########.####..#####",
"########.......#####",
"#######.#####..#####",
"######.######..#####",
"#####.#######..#####",
"###.....###......###",
"####################",
"####################",
"####################"};
