/* XPM */
static char *Link[] = {
/* width height num_colors chars_per_pixel */
"20 20 4 1",
/* colors */
"a	c None",
".	c #333366",
"#	c #6666cc",
"b	c #ffffff",
/* pixels */
"aaaaaaaaaaaaaaaaaaaa",
"aaaaaaaaaaaaaaaaaaaa",
"aaaaaaaaaaaaaaaaaaaa",
"aaaaaaaaaaaaaa..aaaa",
"aaaaaaaaaaaaa.ab.aaa",
"aaaaaaaaa....ab#.aaa",
"aaaaaaaa.ab.ab#.aaaa",
"aaaaaaa.ab.ab#.aaaaa",
"aaaaaa.ab..##..aaaaa",
"aaaaa.ab.aa..a.aaaaa",
"aaaa.ab.aab.ab.aaaaa",
"aaaa.b..ab.ab.aaaaaa",
"aaaa..aa..ab.aaaaaaa",
"aaaa.ab#.ab.aaaaaaaa",
"aaa.ab#.ab.aaaaaaaaa",
"aaa.b#....aaaaaaaaaa",
"aaa...aaaaaaaaaaaaaa",
"aaaaaaaaaaaaaaaaaaaa",
"aaaaaaaaaaaaaaaaaaaa",
"aaaaaaaaaaaaaaaaaaaa"};
