/* XPM */
static char * Lynx_xpm[] = {
"22 19 24 1",
" 	c None",
".	c #000000",
"+	c #ADADAD",
"@	c #D6D6D6",
"#	c #EAEAEA",
"$	c #999999",
"%	c #FFFFFF",
"&	c #666666",
"*	c #707070",
"=	c #C1C1C1",
"-	c #CCCCCC",
";	c #A3A3A3",
">	c #515151",
",	c #7A7A7A",
"'	c #5B5B5B",
")	c #E0E0E0",
"!	c #F4F4F4",
"~	c #B7B7B7",
"{	c #3D3D3D",
"]	c #333333",
"^	c #848484",
"/	c #141414",
"(	c #282828",
"_	c #8E8E8E",
"               .      ",
"               +      ",
"              .+.     ",
"  ..          .@.     ",
"  .#.        .$@.     ",
"  .%&..  *$*.&=%-     ",
"  .-;>,....%'$>)#.    ",
"  .-!,~-{~%%%#;)#.    ",
"   .#]%#+%%%%%%%).    ",
"   .%#@=%%=$@%%%~.    ",
"   .%#'=%%%#&;!),.&   ",
"   .+#^#%%%*/,({{., ..",
"    .#{,@%@=%#*=%%..  ",
".. *.@)!%@#%%#%%%%. ..",
"  ..'$%@*+%@#+^$_.  * ",
".. .^=%%@$$*%#$+.     ",
"    ({.!##%%%...      ",
"      _..%%..         ",
"         ..           "};
