/* XPM */
static char * Mozilla_xpm[] = {
"20 20 3 1",
" 	c None",
".	c #000000",
"+	c #FF0000",
"                    ",
"                    ",
"      .... ...      ",
"    ..++++.....     ",
"   ..++..+..+..     ",
"  ...++.+.++....    ",
" ....+++..++++++..  ",
"  ..++++++++.+++++..",
"....++.++++...++++..",
"  ..++..+++.....+++.",
" ...+++.++++++......",
"  ...+++...+..+++.. ",
"  ...+++++... ...   ",
"   ..+++++..        ",
"   ..++++..         ",
"    ..+++..         ",
"      ....          ",
"                    ",
"                    ",
"                    "};
