/* XPM */
static char *netscape[] = {
/* width height num_colors chars_per_pixel */
"    20    20        9            1",
/* colors */
". c #ffff00",
"# c #c0c0c0",
"a c #c00000",
"b c #a0a0a4",
"c c #808080",
"d c #800000",
"e c None",
"f c #0000c0",
"g c #000000",
/* pixels */
"eeeeeeeeeeeeeeeeeeee",
"eeeeeeeeeeeeeeeeeeee",
"eefffffffgfffffffgee",
"eeffggfff#fffggfgeee",
"eeff#dggg#gggd#geeee",
"eefff#b..#..b#geeeee",
"eefff#.ag#ga#geeeeee",
"eeffb#a#g#g#a#ceeeee",
"eeff#dgf###gedceeeee",
"ee##...##.#####ccgee",
"eegg#gda###adg#gggee",
"eeff.gf#g#gceg.eeeee",
"eeffd##gg#gec#deeeee",
"eefff.bgd#dgbceeeeee",
"eeff#ba.###.abceeeee",
"eef#bgegc#cgegbceeee",
"eefgceeed#deeeggeeee",
"eegeeeeeegeeeeeeeeee",
"eeeeeeeeeeeeeeeeeeee",
"eeeeeeeeeeeeeeeeeeee"};
