/* XPM */
static char * Preview_xpm[] = {
"24 20 5 1",
" 	c None",
".	c #000000",
"+	c #7B7B7B",
"@	c #BDBDBD",
"#	c #FFFFFF",
"                        ",
"                        ",
"        .......         ",
"      ...........       ",
"     .............      ",
"    .........+++...     ",
"   ......###..@@+...    ",
"  .......###...@@++..   ",
" ...........#...#@@+..  ",
"............#...@#@@+.. ",
"............#...#@#@+...",
"....#.......#...@#@@+.. ",
" ...#......#....#@@+..  ",
"  ...#....#....@@@+..   ",
"   ...####....@@@+..    ",
"    .........@@++..     ",
"     .......+++...      ",
"       ..........       ",
"                        ",
"                        "};
