/* XPM */
static char *Template[] = {
/* width height num_colors chars_per_pixel */
"    20    20        8            1",
/* colors */
". c #6666cc",
"# c #808080",
"a c #9999ff",
"b c None",
"c c #ff0000",
"d c #ff6633",
"e c #ffff00",
"f c #ffffff",
/* pixels */
"bbbbbbbbbbbbbbbbbbbb",
"bbbbbbbbbbbbbbbbbbbb",
"bbebbfbfbbebbbbbbbbb",
"bbbebebebebbbbbbbbbb",
"bbbbeedeef......bbbb",
"befeeeceeeefaf.f.bbb",
"bbeddcecd#bafa.ff.bb",
"beffeeceeeefaf....bb",
"bbbbeedeebfafafaf.bb",
"bbbebe.eaeafafafa.bb",
"bbfbbf.afafafafaf.bb",
"bbbbbe.eafafafafa.bb",
"bbbbbb.afafafafaf.bb",
"bbbbbb.fafafafafa.bb",
"bbbbbb.afafafafaf.bb",
"bbbbbb.fafafafafa.bb",
"bbbbbb.afafafafaf.bb",
"bbbbbb............bb",
"bbbbbbbbbbbbbbbbbbbb",
"bbbbbbbbbbbbbbbbbbbb"};
