/* XPM */
static char *Underline[] = {
/* width height num_colors chars_per_pixel */
"    20    20        3            1",
/* colors */
". c #222222",
"# c #333366",
"a c None",
/* pixels */
"aaaaaaaaaaaaaaaaaaaa",
"aaaaaaaaaaaaaaaaaaaa",
"aaaaaaaaaa#aaaaaaaaa",
"aaaaaaaaa###aaaaaaaa",
"aaaaaaaaa###aaaaaaaa",
"aaaaaaaa#####aaaaaaa",
"aaaaaaaa#a###aaaaaaa",
"aaaaaaa##aa###aaaaaa",
"aaaaaaa#aaa###aaaaaa",
"aaaaaa##aaaa###aaaaa",
"aaaaaa#aaaaa###aaaaa",
"aaaaa###########aaaa",
"aaaaa#aaaaaaa###aaaa",
"aaaa##aaaaaaaa###aaa",
"aaa###aaaaaaaa####aa",
"aa#####aaaaa#######a",
"aaaaaaaaaaaaaaaaaaaa",
"aa.................a",
"aaaaaaaaaaaaaaaaaaaa",
"aaaaaaaaaaaaaaaaaaaa"};
